# xmcd CD database file
#
# Track frame offsets:
#	183
#	14325
#	23393
#	93030
#	107963
#	118735
#	139013
#	152838
#	176940
#	197015
#	215575
#
# Disc length: 3191 seconds
#
# Revision: 4
# Processed by: cddbd v1.5.1PL2 Copyright (c) Steve Scherf et al.
# Submitted via: CDex 1.51
#
DISCID=900c750b
DTITLE=Death In June - The Cathedral of Tears
DYEAR=1991
DGENRE=NeoFolk
TTITLE0=Brown Book (re-read)
TTITLE1=Burn Again
TTITLE2=Death of a Man
TTITLE3=Rule Again (instrumental)
TTITLE4=Touch Defiles
TTITLE5=Hidden Among the Leaves
TTITLE6=Red Dog - Black Dog
TTITLE7=Blood Victory (Instrumental)
TTITLE8=Brown Book
TTITLE9=Cathedral of Tears
TTITLE10=Blood Victory
EXTD=YEAR: 1991
EXTT0=
EXTT1=
EXTT2=
EXTT3=
EXTT4=
EXTT5=
EXTT6=
EXTT7=
EXTT8=
EXTT9=
EXTT10=
PLAYORDER=
